<svg width="736" height="660" viewBox="0 0 736 660" fill="none" xmlns="http://www.w3.org/2000/svg">
<path d="M42.7363 42.7363H118.894L159.901 148.185" fill="#FF00A8"/>
<path d="M42.7363 42.7363H118.894L159.901 148.185" stroke="#FF00A8" stroke-width="85.472" stroke-linecap="round" stroke-linejoin="round"/>
<path d="M159.902 148.185H693.004L610.988 464.53H253.634L159.902 148.185Z" fill="#FF00A8" stroke="#FF00A8" stroke-width="85.472" stroke-linecap="round" stroke-linejoin="round"/>
<path d="M189.192 183.334H663.711C670.703 183.334 677.408 186.111 682.352 191.055C687.296 195.999 690.073 202.704 690.073 209.696C690.073 216.688 687.296 223.393 682.352 228.337C677.408 233.281 670.703 236.058 663.711 236.058H189.192C182.201 236.058 175.495 233.281 170.551 228.337C165.608 223.393 162.83 216.688 162.83 209.696C162.83 202.704 165.608 195.999 170.551 191.055C175.495 186.111 182.201 183.334 189.192 183.334Z" fill="#FF00A8" stroke="#FF00A8" stroke-width="85.472" stroke-linecap="round" stroke-linejoin="round"/>
<path d="M347.366 362.011C368.396 362.011 385.444 344.962 385.444 323.932C385.444 302.902 368.396 285.854 347.366 285.854C326.336 285.854 309.287 302.902 309.287 323.932C309.287 344.962 326.336 362.011 347.366 362.011Z" fill="#FF00A8" stroke="#FF00A8" stroke-width="85.472" stroke-linecap="round" stroke-linejoin="round"/>
<path d="M499.68 362.011C520.71 362.011 537.759 344.962 537.759 323.932C537.759 302.902 520.71 285.854 499.68 285.854C478.65 285.854 461.602 302.902 461.602 323.932C461.602 344.962 478.65 362.011 499.68 362.011Z" fill="#FF00A8" stroke="#FF00A8" stroke-width="85.472" stroke-linecap="round" stroke-linejoin="round"/>
<path d="M362.011 322.76C369.453 322.76 375.485 316.728 375.485 309.286C375.485 301.845 369.453 295.812 362.011 295.812C354.57 295.812 348.537 301.845 348.537 309.286C348.537 316.728 354.57 322.76 362.011 322.76Z" fill="#FF00A8" stroke="#FF00A8" stroke-width="85.472" stroke-linecap="round" stroke-linejoin="round"/>
<path d="M514.326 322.76C521.767 322.76 527.8 316.728 527.8 309.286C527.8 301.845 521.767 295.812 514.326 295.812C506.884 295.812 500.852 301.845 500.852 309.286C500.852 316.728 506.884 322.76 514.326 322.76Z" fill="#FF00A8" stroke="#FF00A8" stroke-width="85.472" stroke-linecap="round" stroke-linejoin="round"/>
<path d="M353.225 382.515C400.091 425.475 446.957 425.475 493.823 382.515H353.225Z" fill="#FF00A8"/>
<path d="M353.225 382.515C400.091 425.475 446.957 425.475 493.823 382.515" stroke="#FF00A8" stroke-width="85.472" stroke-linecap="round" stroke-linejoin="round"/>
<path d="M335.649 616.846C368.003 616.846 394.232 590.617 394.232 558.263C394.232 525.909 368.003 499.681 335.649 499.681C303.295 499.681 277.066 525.909 277.066 558.263C277.066 590.617 303.295 616.846 335.649 616.846Z" fill="#FF00A8" stroke="#FF00A8" stroke-width="85.472" stroke-linecap="round" stroke-linejoin="round"/>
<path d="M546.545 616.846C578.9 616.846 605.128 590.617 605.128 558.263C605.128 525.909 578.9 499.681 546.545 499.681C514.191 499.681 487.963 525.909 487.963 558.263C487.963 590.617 514.191 616.846 546.545 616.846Z" fill="#FF00A8" stroke="#FF00A8" stroke-width="85.472" stroke-linecap="round" stroke-linejoin="round"/>
<path d="M42.7363 42.7363H118.894L159.901 148.185" fill="#FAF9F0"/>
<path d="M42.7363 42.7363H118.894L159.901 148.185" stroke="#FAF9F0" stroke-width="79.5551" stroke-linecap="round" stroke-linejoin="round"/>
<path d="M159.902 148.185H693.004L610.988 464.53H253.634L159.902 148.185Z" fill="#FAF9F0" stroke="#FAF9F0" stroke-width="79.5551" stroke-linecap="round" stroke-linejoin="round"/>
<path d="M189.192 183.334H663.711C670.703 183.334 677.408 186.111 682.352 191.055C687.296 195.999 690.073 202.704 690.073 209.696C690.073 216.688 687.296 223.393 682.352 228.337C677.408 233.281 670.703 236.058 663.711 236.058H189.192C182.201 236.058 175.495 233.281 170.551 228.337C165.608 223.393 162.83 216.688 162.83 209.696C162.83 202.704 165.608 195.999 170.551 191.055C175.495 186.111 182.201 183.334 189.192 183.334Z" fill="#FAF9F0" stroke="#FAF9F0" stroke-width="79.5551" stroke-linecap="round" stroke-linejoin="round"/>
<path d="M347.366 362.011C368.396 362.011 385.444 344.962 385.444 323.932C385.444 302.902 368.396 285.854 347.366 285.854C326.336 285.854 309.287 302.902 309.287 323.932C309.287 344.962 326.336 362.011 347.366 362.011Z" fill="#FAF9F0" stroke="#FAF9F0" stroke-width="79.5551" stroke-linecap="round" stroke-linejoin="round"/>
<path d="M499.68 362.011C520.71 362.011 537.759 344.962 537.759 323.932C537.759 302.902 520.71 285.854 499.68 285.854C478.65 285.854 461.602 302.902 461.602 323.932C461.602 344.962 478.65 362.011 499.68 362.011Z" fill="#FAF9F0" stroke="#FAF9F0" stroke-width="79.5551" stroke-linecap="round" stroke-linejoin="round"/>
<path d="M362.011 322.76C369.453 322.76 375.485 316.728 375.485 309.286C375.485 301.845 369.453 295.812 362.011 295.812C354.57 295.812 348.537 301.845 348.537 309.286C348.537 316.728 354.57 322.76 362.011 322.76Z" fill="#FAF9F0" stroke="#FAF9F0" stroke-width="79.5551" stroke-linecap="round" stroke-linejoin="round"/>
<path d="M514.326 322.76C521.767 322.76 527.8 316.728 527.8 309.286C527.8 301.845 521.767 295.812 514.326 295.812C506.884 295.812 500.852 301.845 500.852 309.286C500.852 316.728 506.884 322.76 514.326 322.76Z" fill="#FAF9F0" stroke="#FAF9F0" stroke-width="79.5551" stroke-linecap="round" stroke-linejoin="round"/>
<path d="M353.225 382.515C400.091 425.475 446.957 425.475 493.823 382.515H353.225Z" fill="#FAF9F0"/>
<path d="M353.225 382.515C400.091 425.475 446.957 425.475 493.823 382.515" stroke="#FAF9F0" stroke-width="79.5551" stroke-linecap="round" stroke-linejoin="round"/>
<path d="M335.649 616.846C368.003 616.846 394.232 590.617 394.232 558.263C394.232 525.909 368.003 499.681 335.649 499.681C303.295 499.681 277.066 525.909 277.066 558.263C277.066 590.617 303.295 616.846 335.649 616.846Z" fill="#FAF9F0" stroke="#FAF9F0" stroke-width="79.5551" stroke-linecap="round" stroke-linejoin="round"/>
<path d="M546.545 616.846C578.9 616.846 605.128 590.617 605.128 558.263C605.128 525.909 578.9 499.681 546.545 499.681C514.191 499.681 487.963 525.909 487.963 558.263C487.963 590.617 514.191 616.846 546.545 616.846Z" fill="#FAF9F0" stroke="#FAF9F0" stroke-width="79.5551" stroke-linecap="round" stroke-linejoin="round"/>
<path d="M42.7363 42.7363H118.894L159.901 148.185" stroke="#010D1F" stroke-width="20.5039" stroke-linecap="round" stroke-linejoin="round"/>
<path d="M159.902 148.185H693.004L610.988 464.53H253.634L159.902 148.185Z" fill="#FAF9F0" stroke="#010D1F" stroke-width="20.5039" stroke-linecap="round" stroke-linejoin="round"/>
<path d="M189.192 183.334H663.711C670.703 183.334 677.408 186.111 682.352 191.055C687.296 195.999 690.073 202.704 690.073 209.696C690.073 216.688 687.296 223.393 682.352 228.337C677.408 233.281 670.703 236.058 663.711 236.058H189.192C182.201 236.058 175.495 233.281 170.551 228.337C165.608 223.393 162.83 216.688 162.83 209.696C162.83 202.704 165.608 195.999 170.551 191.055C175.495 186.111 182.201 183.334 189.192 183.334Z" fill="#87E000"/>
<path d="M347.366 362.011C368.396 362.011 385.444 344.962 385.444 323.932C385.444 302.902 368.396 285.854 347.366 285.854C326.336 285.854 309.287 302.902 309.287 323.932C309.287 344.962 326.336 362.011 347.366 362.011Z" fill="#010D1F"/>
<path d="M499.68 362.011C520.71 362.011 537.759 344.962 537.759 323.932C537.759 302.902 520.71 285.854 499.68 285.854C478.65 285.854 461.602 302.902 461.602 323.932C461.602 344.962 478.65 362.011 499.68 362.011Z" fill="#010D1F"/>
<path d="M362.011 322.76C369.453 322.76 375.485 316.728 375.485 309.286C375.485 301.845 369.453 295.812 362.011 295.812C354.57 295.812 348.537 301.845 348.537 309.286C348.537 316.728 354.57 322.76 362.011 322.76Z" fill="#FAF9F0"/>
<path d="M514.326 322.76C521.767 322.76 527.8 316.728 527.8 309.286C527.8 301.845 521.767 295.812 514.326 295.812C506.884 295.812 500.852 301.845 500.852 309.286C500.852 316.728 506.884 322.76 514.326 322.76Z" fill="#FAF9F0"/>
<path d="M353.225 382.515C400.091 425.475 446.957 425.475 493.823 382.515" stroke="#010D1F" stroke-width="20.5039" stroke-linecap="round" stroke-linejoin="round"/>
<path d="M335.649 616.846C368.003 616.846 394.232 590.617 394.232 558.263C394.232 525.909 368.003 499.681 335.649 499.681C303.295 499.681 277.066 525.909 277.066 558.263C277.066 590.617 303.295 616.846 335.649 616.846Z" fill="#87E000" stroke="#010D1F" stroke-width="20.5039" stroke-linecap="round" stroke-linejoin="round"/>
<path d="M546.545 616.846C578.9 616.846 605.128 590.617 605.128 558.263C605.128 525.909 578.9 499.681 546.545 499.681C514.191 499.681 487.963 525.909 487.963 558.263C487.963 590.617 514.191 616.846 546.545 616.846Z" fill="#87E000" stroke="#010D1F" stroke-width="20.5039" stroke-linecap="round" stroke-linejoin="round"/>
</svg>
